<svg width="1080" height="1080" viewBox="0 0 1080 1080" fill="none" xmlns="http://www.w3.org/2000/svg">
<rect width="1080" height="1080" fill="white"/>
<path d="M866.435 290H213.289C189.381 290 170 309.381 170 333.289V746.817C170 770.725 189.381 790.106 213.289 790.106H866.435C890.343 790.106 909.724 770.725 909.724 746.817V333.289C909.724 309.381 890.343 290 866.435 290Z" fill="url(#paint0_linear)"/>
<path d="M219.502 290H861.28C874.269 290 886.725 295.16 895.909 304.344C905.093 313.528 910.253 325.984 910.253 338.973H170.529C170.529 325.984 175.689 313.528 184.873 304.344C194.057 295.16 206.514 290 219.502 290Z" fill="#5CA4E6"/>
<path d="M559.936 370.057H862.068C867.251 370.057 872.222 372.116 875.888 375.781C879.553 379.446 881.612 384.418 881.612 389.601V538.949C881.612 544.133 879.553 549.104 875.888 552.77C872.222 556.435 867.251 558.494 862.068 558.494H559.936C554.752 558.494 549.781 556.435 546.116 552.77C542.45 549.104 540.391 544.133 540.391 538.949V389.601C540.391 387.035 540.897 384.493 541.879 382.122C542.861 379.751 544.301 377.596 546.116 375.781C547.931 373.966 550.085 372.527 552.456 371.544C554.828 370.562 557.369 370.057 559.936 370.057V370.057Z" stroke="#5661AE" stroke-miterlimit="10" stroke-dasharray="11.93 11.93"/>
<path d="M780.97 586.117H478.838C468.043 586.117 459.293 594.868 459.293 605.662V755.01C459.293 765.804 468.043 774.555 478.838 774.555H780.97C791.764 774.555 800.514 765.804 800.514 755.01V605.662C800.514 594.868 791.764 586.117 780.97 586.117Z" fill="white"/>
<path d="M422.684 586.117H211.565C202.434 586.117 195.031 593.52 195.031 602.651V758.021C195.031 767.152 202.434 774.555 211.565 774.555H422.684C431.816 774.555 439.218 767.152 439.218 758.021V602.651C439.218 593.52 431.816 586.117 422.684 586.117Z" fill="white"/>
<path d="M487.097 723.154C487.097 723.154 509.742 720.769 523.358 730.962C541.619 744.631 556.325 755.183 575.738 721.585C597.006 684.777 600.349 671.92 615.864 671.769C635.777 671.575 643.552 724.654 680.27 728.405C716.989 732.156 741.955 726.155 741.955 726.155" stroke="#5661AE" stroke-width="10" stroke-miterlimit="10" stroke-linecap="round"/>
<path d="M487.097 617.217H539.862" stroke="#5661AE" stroke-width="16" stroke-miterlimit="10" stroke-linecap="round"/>
<path d="M487.097 641.841H596.14" stroke="#D4DCF4" stroke-width="16" stroke-miterlimit="10" stroke-linecap="round"/>
<path d="M215.282 325.562C219.904 325.562 223.65 321.815 223.65 317.194C223.65 312.572 219.904 308.825 215.282 308.825C210.66 308.825 206.914 312.572 206.914 317.194C206.914 321.815 210.66 325.562 215.282 325.562Z" fill="white"/>
<path d="M243.641 325.562C248.263 325.562 252.01 321.815 252.01 317.194C252.01 312.572 248.263 308.825 243.641 308.825C239.02 308.825 235.273 312.572 235.273 317.194C235.273 321.815 239.02 325.562 243.641 325.562Z" fill="white"/>
<path d="M271.192 325.562C275.814 325.562 279.561 321.815 279.561 317.194C279.561 312.572 275.814 308.825 271.192 308.825C266.571 308.825 262.824 312.572 262.824 317.194C262.824 321.815 266.571 325.562 271.192 325.562Z" fill="white"/>
<path d="M711.485 498.138C730.186 498.138 745.346 482.977 745.346 464.276C745.346 445.574 730.186 430.414 711.485 430.414C692.783 430.414 677.623 445.574 677.623 464.276C677.623 482.977 692.783 498.138 711.485 498.138Z" fill="#1C85E8"/>
<path d="M714.157 448.276C714.157 446.8 712.961 445.604 711.485 445.604C710.008 445.604 708.812 446.8 708.812 448.276V482.421C708.812 483.898 710.008 485.094 711.485 485.094C712.961 485.094 714.157 483.898 714.157 482.421V448.276Z" fill="white"/>
<path d="M728.557 468.021C730.033 468.021 731.23 466.825 731.23 465.349C731.23 463.872 730.033 462.676 728.557 462.676H694.412C692.936 462.676 691.739 463.872 691.739 465.349C691.739 466.825 692.936 468.021 694.412 468.021H728.557Z" fill="white"/>
<path d="M475.11 375.506L179.194 423.948C174.116 424.779 170.674 429.569 171.505 434.647L190.828 552.685C191.659 557.762 196.45 561.205 201.527 560.373L497.444 511.931C502.521 511.1 505.964 506.31 505.133 501.232L485.809 383.194C484.978 378.117 480.188 374.674 475.11 375.506Z" fill="#FEBB94"/>
<path d="M323.895 449.516L444.158 429.828" stroke="white" stroke-width="16.5208" stroke-miterlimit="10" stroke-linecap="round"/>
<path opacity="0.7" d="M332.438 486.031L410.889 473.188" stroke="white" stroke-width="16.5208" stroke-miterlimit="10" stroke-linecap="round"/>
<path d="M252.007 530.058C275.498 530.058 294.541 511.015 294.541 487.524C294.541 464.033 275.498 444.99 252.007 444.99C228.516 444.99 209.473 464.033 209.473 487.524C209.473 511.015 228.516 530.058 252.007 530.058Z" stroke="#EF6A77" stroke-width="16.5208" stroke-miterlimit="10"/>
<path d="M293.982 480.652C295.341 488.954 294.208 497.473 290.725 505.13C287.243 512.788 281.568 519.241 274.418 523.674C267.269 528.107 258.965 530.319 250.557 530.033C242.15 529.746 234.016 526.973 227.185 522.063C220.354 517.154 215.132 510.329 212.179 502.452C209.226 494.575 208.676 485.999 210.598 477.809C212.519 469.619 216.826 462.183 222.973 456.44C229.121 450.698 236.834 446.908 245.135 445.549" stroke="white" stroke-width="16.5208" stroke-miterlimit="10" stroke-linecap="round"/>
<defs>
<linearGradient id="paint0_linear" x1="521.446" y1="288.811" x2="599.66" y2="1355.87" gradientUnits="userSpaceOnUse">
<stop stop-color="white"/>
<stop offset="1" stop-color="#94B9FF"/>
</linearGradient>
</defs>
</svg>
